<svg width="165" height="139" viewBox="0 0 165 139" fill="none" xmlns="http://www.w3.org/2000/svg">
<path d="M32.9019 26.9945C34.9231 26.9945 36.5616 25.3551 36.5616 23.3327C36.5616 21.3104 34.9231 19.6709 32.9019 19.6709C30.8807 19.6709 29.2422 21.3104 29.2422 23.3327C29.2422 25.3551 30.8807 26.9945 32.9019 26.9945Z" fill="#EAEEF9"/>
<path d="M133.062 38.1728C135.083 38.1728 136.722 36.5333 136.722 34.5109C136.722 32.4886 135.083 30.8491 133.062 30.8491C131.041 30.8491 129.402 32.4886 129.402 34.5109C129.402 36.5333 131.041 38.1728 133.062 38.1728Z" fill="#EAEEF9"/>
<path d="M40.3177 14.5636C41.1155 14.5636 41.7623 13.9165 41.7623 13.1182C41.7623 12.3199 41.1155 11.6727 40.3177 11.6727C39.5198 11.6727 38.873 12.3199 38.873 13.1182C38.873 13.9165 39.5198 14.5636 40.3177 14.5636Z" fill="#EAEEF9"/>
<path d="M128.825 22.6582C129.676 22.6582 130.366 21.9679 130.366 21.1164C130.366 20.2649 129.676 19.5746 128.825 19.5746C127.974 19.5746 127.284 20.2649 127.284 21.1164C127.284 21.9679 127.974 22.6582 128.825 22.6582Z" fill="#EAEEF9"/>
<path d="M82.2115 109C111.466 109 135.181 85.2711 135.181 56C135.181 26.7289 111.466 3 82.2115 3C52.9574 3 29.2422 26.7289 29.2422 56C29.2422 85.2711 52.9574 109 82.2115 109Z" fill="#EAEEF9"/>
<g filter="url(#filter0_d_29_2153)">
<path d="M97.0431 86.3546L51.0079 104.953C50.2374 105.242 49.3707 104.856 49.0817 104.182L22.5971 38.3655C22.3081 37.5946 22.6934 36.7273 23.3675 36.4382L69.4027 17.84C70.1732 17.5509 71.0399 17.9364 71.3289 18.6109L97.8135 84.3309C98.1987 85.1982 97.8135 86.0655 97.0431 86.3546Z" fill="white"/>
</g>
<path d="M76.722 47.4237L38.1988 62.9382C37.8136 63.1309 37.4283 62.9382 37.2357 62.5527C37.0431 62.1673 37.2357 61.7818 37.621 61.5891L76.0478 46.0746C76.433 45.8818 76.8183 46.0746 77.0109 46.46C77.2035 46.8455 77.0109 47.2309 76.722 47.4237Z" fill="#E6EDF5"/>
<path d="M78.1667 51.1818L39.7398 66.6964C39.3546 66.8891 38.9694 66.6964 38.7767 66.3109C38.5841 65.9255 38.7767 65.54 39.162 65.3473L77.5888 49.8327C77.974 49.64 78.3593 49.8328 78.5519 50.2182C78.7445 50.6037 78.5519 50.9891 78.1667 51.1818Z" fill="#E6EDF5"/>
<path d="M79.7077 54.8437L41.2808 70.4546C40.8956 70.6473 40.5104 70.4546 40.3178 70.0691C40.1251 69.6837 40.3178 69.2982 40.703 69.1055L79.1298 53.5909C79.5151 53.3982 79.9003 53.5909 80.0929 53.9764C80.2855 54.2655 80.0929 54.7473 79.7077 54.8437Z" fill="#E6EDF5"/>
<path d="M57.268 68.3345L42.8218 74.2127C42.4366 74.4055 42.0514 74.2127 41.8588 73.8273C41.6662 73.4418 41.8588 73.0564 42.244 72.8636L56.6902 66.9855C57.0754 66.7927 57.4606 66.9855 57.6533 67.3709C57.7496 67.7564 57.6533 68.1418 57.268 68.3345Z" fill="#E6EDF5"/>
<path d="M84.7157 64.3837L85.9677 67.5637C86.1603 68.1419 85.9677 68.8164 85.3898 69.0091L47.3482 84.4273C46.7703 84.62 46.0962 84.4273 45.9036 83.8491L44.6516 80.5728C44.459 79.9946 44.6516 79.32 45.2294 79.1273L83.271 63.8055C83.8489 63.6128 84.4267 63.9019 84.7157 64.3837Z" fill="#E3EAF2"/>
<path d="M87.7011 71.7073L88.9531 74.8873C89.1457 75.4655 88.9531 76.14 88.3753 76.3327L50.3337 91.7509C49.7558 91.9436 49.0817 91.7509 48.889 91.1727L47.5407 87.8964C47.3481 87.3182 47.5407 86.6436 48.1186 86.4509L86.1602 71.1291C86.7381 70.9364 87.4122 71.2255 87.7011 71.7073Z" fill="#E3EAF2"/>
<path d="M90.5904 79.0309L91.8424 82.2109C92.035 82.7891 91.8424 83.4637 91.2646 83.6564L53.223 99.0746C52.6451 99.2673 51.971 99.0746 51.7783 98.4964L50.5263 95.3164C50.3337 94.7382 50.5263 94.0637 51.1042 93.8709L89.1458 78.5491C89.7236 78.26 90.3978 78.5491 90.5904 79.0309Z" fill="#E3EAF2"/>
<path d="M49.178 77.5854L51.2968 82.8854L47.3482 84.4273C46.7703 84.62 46.0962 84.4273 45.9036 83.8491L44.6516 80.5727C44.459 79.9945 44.6516 79.32 45.2294 79.1273L49.178 77.5854Z" fill="#989FB0"/>
<path d="M48.215 86.4509L59.772 81.7291L61.8907 87.0291L50.3338 91.7509C49.756 91.9437 49.0818 91.7509 48.8892 91.1728L47.5409 87.8964C47.3483 87.4146 47.6372 86.74 48.215 86.4509Z" fill="#B4BACA"/>
<path d="M51.1042 93.7746L52.7414 93.1L54.8602 98.4L53.223 99.0746C52.6451 99.2673 51.971 99.0746 51.7783 98.4964L50.5263 95.3164C50.3337 94.7382 50.5263 94.0637 51.1042 93.7746Z" fill="#B4BACA"/>
<path d="M51.682 44.1473C51.5857 38.8473 47.2518 34.5109 41.8586 34.5109H41.7623C36.369 34.5109 32.0352 38.9437 32.0352 44.34C32.1315 49.7364 36.5616 54.0727 41.9549 54.0727C44.9404 54.0727 47.5407 52.7237 49.3706 50.7C50.9115 48.9655 51.7783 46.7491 51.7783 44.2437C51.682 44.2437 51.682 44.2437 51.682 44.1473ZM41.9549 50.9891C38.2952 50.9891 35.3096 48.0018 35.3096 44.34C35.3096 40.6782 38.2952 37.6909 41.9549 37.6909H42.0512C45.7109 37.6909 48.6001 40.5818 48.6964 44.1473C48.6964 44.2437 48.6964 44.2437 48.6964 44.34C48.6964 45.9782 48.1186 47.52 47.0592 48.6764C45.7109 50.1218 43.9773 50.9891 41.9549 50.9891Z" fill="#E6EDF5"/>
<path d="M51.682 44.1473H48.5039C48.5039 40.5818 45.5183 37.6909 41.955 37.6909H41.8586V34.5109H41.955C47.2519 34.5109 51.5857 38.8473 51.682 44.1473Z" fill="#989FB0"/>
<g filter="url(#filter1_d_29_2153)">
<path d="M115.823 101.291L69.3064 83.9455C68.536 83.6564 68.1508 82.7891 68.4397 82.0182L93.0945 15.6237C93.3834 14.8527 94.2502 14.4673 95.0207 14.7564L141.537 32.0055C142.308 32.2946 142.693 33.1618 142.404 33.9327L117.749 100.424C117.46 101.195 116.594 101.58 115.823 101.291Z" fill="white"/>
</g>
<path opacity="0.4" d="M109.66 44.6291L105.904 43.1837L108.985 34.6073L112.741 35.9564L109.66 44.6291Z" fill="#E6EDF5"/>
<path d="M114.764 46.46L110.911 45.0145L115.63 31.9091L119.386 33.3545L114.764 46.46Z" fill="#B4BACA"/>
<path d="M124.876 50.0254L121.12 48.6763L127.284 31.4272L131.136 32.7763L124.876 50.0254Z" fill="#B4BACA"/>
<path opacity="0.4" d="M129.692 51.76L125.936 50.4109L127.573 45.6891L131.425 47.1345L129.692 51.76Z" fill="#E6EDF5"/>
<path d="M126.995 58.7946L88.0866 44.34C87.7014 44.2436 87.5088 43.7618 87.6051 43.3764C87.7014 42.9909 88.183 42.7982 88.5682 42.8946L127.477 57.3491C127.862 57.4455 128.054 57.9273 127.958 58.3127C127.766 58.6982 127.38 58.8909 126.995 58.7946Z" fill="#E6EDF5"/>
<path d="M125.55 62.5527L86.6418 48.0982C86.2566 48.0018 86.064 47.52 86.1603 47.1345C86.2566 46.7491 86.7381 46.5564 87.1234 46.6527L126.032 61.1073C126.417 61.2036 126.61 61.6855 126.513 62.0709C126.417 62.4564 125.935 62.7455 125.55 62.5527Z" fill="#E6EDF5"/>
<path d="M124.202 66.3109L85.2937 51.8564C84.9084 51.76 84.7158 51.2782 84.8121 50.8927C84.9084 50.5073 85.39 50.3145 85.7752 50.4109L124.684 64.8655C125.069 64.9618 125.261 65.4436 125.165 65.8291C124.973 66.3109 124.587 66.5036 124.202 66.3109Z" fill="#E6EDF5"/>
<path d="M98.5841 61.1073L83.9453 55.7109C83.5601 55.6146 83.3674 55.1327 83.4638 54.7473C83.5601 54.3618 84.0416 54.1691 84.4268 54.2655L99.0656 59.6618C99.4509 59.7582 99.6435 60.24 99.5472 60.6255C99.3546 61.0109 98.9693 61.2036 98.5841 61.1073Z" fill="#DDDDDD"/>
<path d="M121.505 76.7182L120.35 79.9946C120.157 80.5727 119.483 80.8618 118.905 80.6691L110.623 77.5855L80.382 66.3109C79.8042 66.1182 79.5152 65.4437 79.7079 64.8655L80.8636 61.5891C81.0562 61.0109 81.7303 60.7218 82.3082 60.9146L112.356 72.0927L120.735 75.1764C121.409 75.5618 121.698 76.14 121.505 76.7182Z" fill="#E6EDF5"/>
<path d="M118.712 84.1382L117.557 87.4146C117.364 87.9927 116.69 88.2818 116.112 88.0891L113.319 87.0291L77.6852 73.8273C77.1074 73.6346 76.8185 72.96 77.0111 72.3818L78.1668 69.1055C78.3594 68.5273 79.0336 68.2382 79.6114 68.4309L115.342 81.7291L118.038 82.7891C118.616 82.9818 118.905 83.56 118.712 84.1382Z" fill="#E6EDF5"/>
<path d="M116.016 91.5582L114.86 94.8345C114.667 95.4127 113.993 95.7018 113.415 95.5091L99.1617 90.2091L74.9885 81.2473C74.4106 81.0545 74.1217 80.38 74.3143 79.8018L75.47 76.5255C75.6626 75.9473 76.3368 75.6582 76.9146 75.8509L101.666 85.0054L115.341 90.1127C115.919 90.3055 116.208 90.98 116.016 91.5582Z" fill="#E6EDF5"/>
<path d="M76.9146 75.8509L101.666 85.0054L99.1617 90.1127L74.9885 81.1509C74.4106 80.9582 74.1217 80.2836 74.3143 79.7054L75.47 76.4291C75.6626 75.9473 76.3368 75.6582 76.9146 75.8509Z" fill="#B4B9C9"/>
<path d="M79.7079 64.9618L80.8636 61.6855C81.0562 61.1073 81.7303 60.8182 82.3082 61.0109L112.356 72.1891L110.43 77.4891L80.382 66.3109C79.8042 66.1182 79.5152 65.54 79.7079 64.9618Z" fill="#B4B9C9"/>
<path d="M115.342 81.7291L113.319 87.0291L77.6852 73.8273C77.1074 73.6346 76.8185 72.96 77.0111 72.3818L78.1668 69.1055C78.3594 68.5273 79.0336 68.2382 79.6114 68.4309L115.342 81.7291Z" fill="#B4B9C9"/>
<path d="M89.5313 63.7091L87.6051 69.0091L80.382 66.3109C79.8042 66.1182 79.5152 65.4437 79.7079 64.8655L80.8636 61.5891C81.0562 61.0109 81.7303 60.7218 82.3082 60.9146L89.5313 63.7091Z" fill="#DDDDDD"/>
<path d="M79.6114 68.4309L86.8345 71.1291L84.9083 76.4291L77.6852 73.7309C77.1074 73.5382 76.8185 72.8636 77.0111 72.2855L78.1668 69.0091C78.4557 68.5273 79.0336 68.2382 79.6114 68.4309Z" fill="#DDDDDD"/>
<path d="M76.9146 75.8509L84.1377 78.5491L82.2116 83.8491L74.9885 81.1509C74.4106 80.9582 74.1217 80.2836 74.3143 79.7054L75.47 76.4291C75.6626 75.9473 76.3368 75.6582 76.9146 75.8509Z" fill="#DDDDDD"/>
<g filter="url(#filter2_d_29_2153)">
<path d="M107.541 85.1982H57.9422C57.1717 85.1982 56.4976 84.5237 56.4976 83.7528V12.8291C56.4976 12.0582 57.1717 11.3837 57.9422 11.3837H107.541C108.311 11.3837 108.985 12.0582 108.985 12.8291V83.6564C109.082 84.5237 108.408 85.1982 107.541 85.1982Z" fill="white"/>
</g>
<path d="M103.207 38.6537H61.7944C61.4092 38.6537 61.0239 38.3647 61.0239 37.8832C61.0239 37.498 61.3128 37.1127 61.7944 37.1127H103.207C103.592 37.1127 103.977 37.4017 103.977 37.8832C103.977 38.2684 103.592 38.6537 103.207 38.6537Z" fill="#E6EDF5"/>
<path d="M103.207 42.6046H61.7944C61.4092 42.6046 61.0239 42.3157 61.0239 41.8341C61.0239 41.4489 61.3128 41.0637 61.7944 41.0637H103.207C103.592 41.0637 103.977 41.3526 103.977 41.8341C103.977 42.3157 103.592 42.6046 103.207 42.6046Z" fill="#E6EDF5"/>
<path d="M103.207 46.6518H61.7944C61.4092 46.6518 61.0239 46.3629 61.0239 45.8814C61.0239 45.4961 61.3128 45.1109 61.7944 45.1109H103.207C103.592 45.1109 103.977 45.3998 103.977 45.8814C103.977 46.3629 103.592 46.6518 103.207 46.6518Z" fill="#E6EDF5"/>
<path d="M103.111 61.7809H89.1459C88.7607 61.7809 88.3755 61.492 88.3755 61.0105C88.3755 60.6252 88.6644 60.24 89.1459 60.24H103.111C103.496 60.24 103.881 60.5289 103.881 61.0105C103.785 61.3957 103.496 61.7809 103.111 61.7809Z" fill="#E6EDF5"/>
<path d="M80.5745 65.9255C80.4782 60.6255 76.1444 56.2891 70.7511 56.2891H70.6548C65.2616 56.2891 60.9277 60.7219 60.9277 66.1182C60.9277 71.5146 65.3579 75.9473 70.7511 75.9473C73.7367 75.9473 76.337 74.5982 78.1668 72.5746C79.7078 70.84 80.5745 68.6237 80.5745 66.1182C80.5745 66.0219 80.5745 65.9255 80.5745 65.9255ZM70.7511 72.6709C67.0914 72.6709 64.1059 69.6837 64.1059 66.0219C64.1059 62.36 67.0914 59.3728 70.7511 59.3728H70.8474C74.5071 59.3728 77.3964 62.2637 77.4927 65.8291C77.4927 65.9255 77.4927 65.9255 77.4927 66.0219C77.4927 67.66 76.9148 69.2019 75.8555 70.3582C74.5071 71.8037 72.7736 72.6709 70.7511 72.6709Z" fill="#E6EDF5"/>
<path d="M80.5745 65.9255H77.3963C77.3 62.36 74.4108 59.4691 70.7511 59.4691H70.6548V56.2891H70.7511C76.1443 56.2891 80.4782 60.5291 80.5745 65.9255Z" fill="#989FB0"/>
<path d="M80.5747 66.0218C80.5747 68.5273 79.7079 70.7437 78.167 72.4782L75.7593 70.4546C76.8187 69.2982 77.3965 67.7564 77.3965 66.1182C77.3965 66.0218 77.3965 66.0218 77.3965 65.9255H80.5747V66.0218Z" fill="#B4BACA"/>
<path d="M85.7752 62.0709C86.3603 62.0709 86.8346 61.5964 86.8346 61.0109C86.8346 60.4255 86.3603 59.9509 85.7752 59.9509C85.1901 59.9509 84.7158 60.4255 84.7158 61.0109C84.7158 61.5964 85.1901 62.0709 85.7752 62.0709Z" fill="#E6EDF5"/>
<path d="M103.111 66.2137H89.1459C88.7607 66.2137 88.3755 65.9247 88.3755 65.4432C88.3755 65.058 88.6644 64.6727 89.1459 64.6727H103.111C103.496 64.6727 103.881 64.9617 103.881 65.4432C103.785 65.8284 103.496 66.2137 103.111 66.2137Z" fill="#E6EDF5"/>
<path d="M85.7752 66.5037C86.3603 66.5037 86.8346 66.0291 86.8346 65.4437C86.8346 64.8582 86.3603 64.3837 85.7752 64.3837C85.1901 64.3837 84.7158 64.8582 84.7158 65.4437C84.7158 66.0291 85.1901 66.5037 85.7752 66.5037Z" fill="#B4BACA"/>
<path d="M103.111 70.6464H89.1459C88.7607 70.6464 88.3755 70.3575 88.3755 69.8759C88.3755 69.4907 88.6644 69.1055 89.1459 69.1055H103.111C103.496 69.1055 103.881 69.3944 103.881 69.8759C103.785 70.2612 103.496 70.6464 103.111 70.6464Z" fill="#E6EDF5"/>
<path d="M85.7752 70.9363C86.3603 70.9363 86.8346 70.4618 86.8346 69.8763C86.8346 69.2909 86.3603 68.8163 85.7752 68.8163C85.1901 68.8163 84.7158 69.2909 84.7158 69.8763C84.7158 70.4618 85.1901 70.9363 85.7752 70.9363Z" fill="#989FB0"/>
<path d="M61.3127 33.3545H103.881V16.1054L97.1393 19.4781L93.5759 21.9836L87.2196 21.8872L81.6337 24.7781L76.8183 25.4527L75.0848 27.38L70.0768 30.56L65.1651 31.4272L61.3127 33.3545Z" fill="#989FB0"/>
<path d="M61.3127 33.3545H103.881V20.2491L97.1393 22.7545L93.5759 24.6818L87.2196 24.5854L81.6337 26.8018L76.8183 27.38L75.0848 28.7291L70.0768 31.2345L65.1651 31.9091L61.3127 33.3545Z" fill="#E6EDF5"/>
<path d="M61.3127 33.3545H103.881V25.9345L97.1393 27.38L93.5759 28.44H87.2196L81.6337 29.5963L76.8183 29.9818L75.0848 30.7527L70.0768 32.1018L65.1651 32.4872L61.3127 33.3545Z" fill="#CED7E2"/>
<defs>
<filter id="filter0_d_29_2153" x="0.5" y="6.74292" width="119.465" height="131.307" filterUnits="userSpaceOnUse" color-interpolation-filters="sRGB">
<feFlood flood-opacity="0" result="BackgroundImageFix"/>
<feColorMatrix in="SourceAlpha" type="matrix" values="0 0 0 0 0 0 0 0 0 0 0 0 0 0 0 0 0 0 127 0" result="hardAlpha"/>
<feOffset dy="11"/>
<feGaussianBlur stdDeviation="11"/>
<feColorMatrix type="matrix" values="0 0 0 0 0.397708 0 0 0 0 0.47749 0 0 0 0 0.575 0 0 0 0.18 0"/>
<feBlend mode="normal" in2="BackgroundImageFix" result="effect1_dropShadow_29_2153"/>
<feBlend mode="normal" in="SourceGraphic" in2="effect1_dropShadow_29_2153" result="shape"/>
</filter>
<filter id="filter1_d_29_2153" x="46.3438" y="3.6604" width="118.156" height="130.727" filterUnits="userSpaceOnUse" color-interpolation-filters="sRGB">
<feFlood flood-opacity="0" result="BackgroundImageFix"/>
<feColorMatrix in="SourceAlpha" type="matrix" values="0 0 0 0 0 0 0 0 0 0 0 0 0 0 0 0 0 0 127 0" result="hardAlpha"/>
<feOffset dy="11"/>
<feGaussianBlur stdDeviation="11"/>
<feColorMatrix type="matrix" values="0 0 0 0 0.397708 0 0 0 0 0.47749 0 0 0 0 0.575 0 0 0 0.18 0"/>
<feBlend mode="normal" in2="BackgroundImageFix" result="effect1_dropShadow_29_2153"/>
<feBlend mode="normal" in="SourceGraphic" in2="effect1_dropShadow_29_2153" result="shape"/>
</filter>
<filter id="filter2_d_29_2153" x="34.4976" y="0.383667" width="96.4971" height="117.815" filterUnits="userSpaceOnUse" color-interpolation-filters="sRGB">
<feFlood flood-opacity="0" result="BackgroundImageFix"/>
<feColorMatrix in="SourceAlpha" type="matrix" values="0 0 0 0 0 0 0 0 0 0 0 0 0 0 0 0 0 0 127 0" result="hardAlpha"/>
<feOffset dy="11"/>
<feGaussianBlur stdDeviation="11"/>
<feColorMatrix type="matrix" values="0 0 0 0 0.397708 0 0 0 0 0.47749 0 0 0 0 0.575 0 0 0 0.18 0"/>
<feBlend mode="normal" in2="BackgroundImageFix" result="effect1_dropShadow_29_2153"/>
<feBlend mode="normal" in="SourceGraphic" in2="effect1_dropShadow_29_2153" result="shape"/>
</filter>
</defs>
</svg>
